<?xml version="1.0" standalone="no"?>
<!DOCTYPE svg PUBLIC "-//W3C//DTD SVG 20010904//EN"
 "http://www.w3.org/TR/2001/REC-SVG-20010904/DTD/svg10.dtd">
<svg version="1.0" xmlns="http://www.w3.org/2000/svg"
 width="400.000000pt" height="400.000000pt" viewBox="0 0 400.000000 400.000000"
 preserveAspectRatio="xMidYMid meet">

<g transform="translate(0.000000,400.000000) scale(0.100000,-0.100000)"
fill="#000000" stroke="none">
<path d="M1808 3043 c-33 -4 -41 -11 -76 -67 -50 -78 -93 -180 -116 -271 -10
-38 -21 -77 -24 -85 -8 -23 -30 113 -38 238 -5 85 -10 112 -21 112 -22 0 -133
-59 -133 -71 0 -24 153 -755 159 -762 4 -4 22 -2 41 5 33 11 35 10 82 -42 27
-29 51 -50 54 -47 3 3 -15 64 -40 137 -49 140 -57 180 -30 145 26 -33 73 -131
101 -208 45 -126 67 -160 139 -215 37 -29 69 -50 71 -48 3 2 -3 18 -12 36 -9
17 -34 90 -57 163 -46 151 -84 237 -131 295 -29 37 -86 87 -108 94 -11 4 32
184 65 272 36 95 101 217 141 264 54 63 49 67 -67 55z"/>
<path d="M1952 3003 c-39 -91 -62 -197 -73 -328 -15 -194 0 -323 67 -585 68
-261 54 -234 137 -277 39 -21 91 -53 115 -70 23 -18 47 -33 52 -33 6 0 -5 30
-23 68 -61 121 -101 275 -127 484 -19 149 -8 497 19 618 12 52 24 107 27 121
7 30 0 33 -107 44 l-66 7 -21 -49z"/>
<path d="M717 3019 c-41 -22 -123 -98 -149 -139 l-15 -25 -37 33 c-46 40 -108
72 -141 72 -30 0 -31 -9 -7 -41 10 -13 28 -40 40 -61 l23 -36 -66 -54 c-38
-30 -80 -77 -101 -110 -19 -31 -60 -81 -91 -112 l-56 -57 14 -41 c11 -34 21
-44 58 -61 52 -23 116 -18 169 13 29 18 44 20 96 14 58 -7 64 -10 126 -70 35
-35 67 -61 71 -56 4 4 -6 108 -22 232 -45 350 -49 335 72 272 10 -5 59 113 69
169 14 71 1 86 -53 58z"/>
<path d="M2206 2938 c-46 -164 -68 -423 -52 -601 l8 -77 69 -46 c85 -57 263
-217 346 -311 l62 -70 -25 -89 c-14 -49 -29 -93 -34 -98 -4 -4 -45 19 -89 53
-90 68 -117 110 -156 236 -20 64 -26 74 -79 114 -31 24 -60 41 -63 38 -8 -9
43 -198 83 -305 67 -179 67 -178 244 -312 88 -66 162 -120 165 -120 3 0 5 33
5 73 0 100 14 188 56 355 l36 142 -57 77 c-105 138 -280 307 -403 388 -42 27
-43 30 -37 69 12 80 27 136 37 136 6 0 46 -19 90 -42 83 -45 214 -157 259
-222 13 -20 27 -36 31 -36 3 0 50 47 103 105 l98 105 -26 37 c-166 232 -318
358 -535 439 -34 13 -75 24 -91 24 -26 0 -29 -5 -45 -62z"/>
<path d="M1244 2821 c-35 -21 -76 -96 -69 -126 2 -11 25 -126 50 -255 51 -260
57 -273 140 -311 46 -21 137 -25 153 -6 7 8 -10 109 -57 340 -74 366 -78 377
-148 377 -21 0 -52 -9 -69 -19z m133 -361 c22 -129 40 -237 38 -239 -10 -9
-56 11 -65 29 -11 21 -80 361 -80 397 0 27 27 55 49 51 12 -3 24 -51 58 -238z"/>
<path d="M620 2788 c1 -7 17 -133 38 -280 l37 -267 42 -31 c23 -17 44 -26 47
-21 3 5 1 32 -4 61 -17 91 -11 88 35 -15 l44 -100 70 -33 c38 -19 77 -32 85
-30 12 2 -9 42 -79 151 -90 142 -93 148 -72 156 45 18 71 58 70 110 -1 55 -29
151 -47 156 -78 21 -103 34 -144 75 -70 70 -123 100 -122 68z m195 -205 c32
-15 36 -21 33 -53 -2 -27 -8 -36 -25 -38 -13 -2 -25 4 -31 15 -10 20 -23 93
-17 93 3 0 20 -8 40 -17z"/>
<path d="M1035 2673 c-42 -22 -66 -44 -76 -70 -5 -14 3 -99 22 -235 32 -228
39 -247 98 -282 34 -20 124 -27 141 -10 6 6 -5 108 -30 279 -22 148 -40 274
-40 278 0 15 -49 57 -67 57 -10 -1 -31 -8 -48 -17z m59 -135 c15 -89 46 -381
42 -386 -9 -8 -54 26 -59 45 -3 10 -15 91 -28 180 -23 172 -21 193 22 193 13
0 20 -10 23 -32z"/>
<path d="M2827 2352 c-53 -55 -97 -102 -97 -106 0 -13 248 -352 312 -426 130
-151 329 -281 498 -327 82 -22 312 -25 332 -5 17 17 -6 35 -81 62 -205 75
-359 167 -461 276 -82 87 -193 253 -300 449 -45 83 -87 156 -94 163 -10 10
-32 -8 -109 -86z"/>
<path d="M1240 2055 c-43 -17 -103 -18 -153 -4 -49 13 -57 6 -24 -25 14 -13
38 -48 53 -77 15 -30 44 -82 65 -115 34 -53 47 -65 101 -89 77 -35 156 -38
196 -8 15 11 27 27 27 36 0 18 -125 87 -159 87 -32 0 -47 38 -53 133 -3 42 -9
77 -12 76 -3 0 -22 -7 -41 -14z"/>
<path d="M2469 1446 c12 -18 28 -73 36 -122 35 -198 88 -362 141 -432 32 -41
105 -95 115 -85 4 5 8 53 10 108 2 84 -1 107 -19 146 -27 57 -52 153 -52 196
0 30 -11 41 -120 128 -66 52 -122 95 -126 95 -3 0 4 -15 15 -34z"/>
</g>
</svg>
